<svg width="168" height="154" viewBox="0 0 168 154" fill="none" xmlns="http://www.w3.org/2000/svg">
<g filter="url(#filter0_d_1_353)">
<path d="M65.8052 90.4999L92.8052 90.4999C95.2905 90.4999 97.3052 88.4852 97.3052 85.9999L97.3052 51.9999C97.3052 46.7532 93.0519 42.4999 87.8052 42.4999L52.8052 42.4999C50.3199 42.4999 48.3052 44.5146 48.3052 46.9999L48.3052 72.9999C48.3052 82.6649 56.1402 90.4999 65.8052 90.4999Z" fill="#FFF1DA" stroke="black"/>
<path d="M92.7396 89.004L92.7397 89.0041L92.7439 89.0013C93.9044 88.2433 95.1766 87.7015 96.4803 87.409C96.9797 87.3081 97.3743 87.5032 97.548 87.8033L97.5487 87.8045L98.7009 89.7819L98.7012 89.7825C98.8765 90.0822 98.8614 90.5387 98.5475 90.9567C97.7002 92.0334 96.6566 92.9669 95.4806 93.698L95.4806 93.698L95.4764 93.7007C93.9495 94.6736 92.4109 95.2418 91.1708 95.3895C89.889 95.5422 89.1065 95.2355 88.811 94.7282C88.5154 94.2209 88.6134 93.3529 89.3307 92.2315C90.0247 91.1465 91.2128 89.9769 92.7396 89.004Z" fill="#D5D6DB" stroke="black"/>
<path d="M88.5021 59.9482C88.9722 59.8521 89.4128 60.0271 89.6251 60.3943L90.4593 61.8261C90.6733 62.1922 90.6202 62.6815 90.3237 63.0744M88.5021 59.9482L88.5976 60.4149C88.5961 60.4152 88.5947 60.4155 88.5932 60.4159M88.5021 59.9482L88.5895 60.4166C88.5907 60.4164 88.592 60.4161 88.5932 60.4159M88.5021 59.9482L85.6834 61.1488C83.4066 62.5996 82.0808 64.671 82.7234 65.7738C83.366 66.8766 85.7345 66.5941 88.0111 65.1434C88.897 64.5923 89.6839 63.8881 90.3237 63.0744M90.3237 63.0744L89.9711 62.7714C89.9701 62.7728 89.969 62.7741 89.9679 62.7755M90.3237 63.0744L89.9653 62.7789C89.9662 62.7778 89.9671 62.7766 89.9679 62.7755M89.9679 62.7755C90.1688 62.5069 90.1639 62.2362 90.0698 62.0751L90.0694 62.0745L89.2351 60.6428L89.2343 60.6413C89.1413 60.4805 88.9139 60.3516 88.5932 60.4159M89.9679 62.7755C89.363 63.5438 88.6178 64.2107 87.7778 64.7333L87.7778 64.7333L87.7736 64.7359C86.6789 65.4335 85.5804 65.8373 84.703 65.9419C83.7837 66.0515 83.2867 65.8227 83.1134 65.5253C82.9401 65.2279 82.9734 64.6612 83.4881 63.8571C83.9792 63.0897 84.826 62.254 85.9209 61.5563L85.9209 61.5564L85.9252 61.5536C86.7543 61.012 87.6629 60.625 88.5932 60.4159" fill="#D5D6DB" stroke="black"/>
<path d="M75.6392 61.5532L75.6397 61.5533L99.1192 64.1451L82.6851 74.618L69.745 65.6996L69.745 65.6996L69.7438 65.6988C69.7132 65.6779 69.6907 65.6527 69.6751 65.6257L69.6749 65.6253C69.6166 65.5249 69.6204 65.249 69.9208 65.0582L69.9214 65.0578L75.2696 61.6496L75.27 61.6494C75.3942 61.57 75.5282 61.5408 75.6392 61.5532Z" fill="#029BC5" stroke="black"/>
<path d="M39.1974 102.109L119.697 52.4063L119.697 52.4059C122.052 50.9462 124.671 50.0522 127.288 49.8116C128.431 49.7129 129.557 49.7511 130.64 49.9239L130.644 49.9244C131.595 50.0687 132.493 50.3462 133.314 50.7469C133.596 50.8867 133.926 50.9888 134.246 51.077C134.382 51.1146 134.513 51.1488 134.643 51.1825C134.836 51.233 135.024 51.2823 135.22 51.3399C135.847 51.5249 136.275 51.7281 136.483 52.0105C136.488 52.0331 136.495 52.0622 136.503 52.0974C136.525 52.2048 136.552 52.3682 136.568 52.5778C136.598 52.9968 136.581 53.5989 136.384 54.3095C135.993 55.717 134.873 57.6221 131.84 59.3797L132.065 59.794L131.826 59.3882L83.329 89.9183L54.6923 101.313L40.4014 104.154L39.1974 102.109Z" fill="#E1E6E9" stroke="black"/>
<path d="M63.6898 120.504L63.6897 120.504C63.539 120.445 63.4376 120.271 63.5709 120.023L84.5047 86.6507L110.676 69.3519L72.1102 114.693L72.1029 114.702L72.0961 114.71C71.3939 115.62 70.5241 116.412 69.5402 117.037C69.5402 117.037 69.5402 117.037 69.5401 117.037L64.1962 120.427L64.1959 120.427C64.0124 120.544 63.8184 120.555 63.6898 120.504Z" fill="#029BC5" stroke="black"/>
<path d="M31.0545 85.6396L31.0547 85.6396L49.6437 91.9839L37.7577 99.4081L25.6269 89.6927L25.6264 89.6923C25.5803 89.6555 25.543 89.6119 25.5144 89.563C25.3777 89.3277 25.4428 88.8629 25.8977 88.5734L25.8978 88.5733L30.3153 85.7599C30.5683 85.5988 30.8472 85.5687 31.0545 85.6396Z" fill="#029BC5" stroke="black"/>
<path d="M39.4569 108.437L36.2194 110.489L42.1881 102.129L47.3133 98.8848L39.4569 108.437Z" fill="#029BC5" stroke="black"/>
<path d="M129.842 50.3288L129.842 50.3289L129.845 50.3294C130.523 50.4327 131.174 50.6023 131.791 50.8347L124.952 55.1898C124.898 55.2234 124.841 55.2426 124.788 55.2484C124.703 55.2575 124.657 55.2309 124.639 55.2146C124.626 55.203 124.615 55.1873 124.613 55.1568C124.85 53.4436 125.527 51.7373 126.59 50.1976C127.698 50.1157 128.79 50.1598 129.842 50.3288Z" fill="#029BC5" stroke="black"/>
<path d="M113.961 58.9248L118.147 56.2809L122.297 63.338L118.11 65.9819L113.961 58.9248Z" fill="#D5D6DB" stroke="black"/>
<path d="M110.063 63.2582C109.929 63.0299 109.991 62.5715 110.444 62.2842C110.897 61.9977 111.316 62.1512 111.45 62.3794L111.936 63.2114C112.052 63.4397 111.984 63.8653 111.568 64.1464C111.126 64.4444 110.697 64.3121 110.549 64.0902L110.063 63.2582Z" fill="#3A556A" stroke="black"/>
<path d="M105.598 66.0307C105.465 65.8025 105.527 65.3441 105.98 65.0568C106.433 64.7705 106.852 64.9238 106.985 65.1522L107.472 65.984C107.587 66.2123 107.52 66.6378 107.103 66.9189C106.661 67.217 106.233 67.0847 106.085 66.8628L105.598 66.0307Z" fill="#3A556A" stroke="black"/>
<path d="M101.514 67.8299C101.062 68.1175 101 68.5751 101.134 68.8032L101.62 69.6352C101.768 69.857 102.197 69.9894 102.639 69.6914L101.514 67.8299ZM101.514 67.8299C101.968 67.5427 102.387 67.6962 102.521 67.9245L103.007 68.7564C103.123 68.9847 103.055 69.4103 102.639 69.6914L101.514 67.8299Z" fill="#3A556A" stroke="black"/>
<path d="M96.6693 71.5757C96.5359 71.3476 96.5973 70.8899 97.05 70.6023C97.5032 70.3154 97.9228 70.4686 98.0565 70.6971L98.5429 71.5289C98.6585 71.7572 98.5909 72.1828 98.1745 72.4639C97.7325 72.7619 97.3041 72.6296 97.1558 72.4077L96.6693 71.5757Z" fill="#3A556A" stroke="black"/>
<path d="M92.3482 72.9684C91.7499 73.3483 91.5114 74.0765 91.8152 74.596L92.3078 75.4383C92.6115 75.9576 93.3427 76.0713 93.9411 75.6923C94.5395 75.3133 94.7784 74.5851 94.4747 74.0659L93.9821 73.2235C93.6792 72.7038 92.9482 72.5893 92.3494 72.9676M92.3482 72.9684L92.586 73.3751L92.586 73.3751L92.586 73.3751L92.586 73.3751L92.586 73.3751L92.586 73.3751L92.586 73.3751L92.586 73.3751L92.586 73.3751L92.586 73.3751L92.586 73.3751L92.586 73.3751L92.586 73.3751L92.586 73.3751L92.586 73.3751L92.586 73.3751L92.586 73.3751L92.586 73.375L92.586 73.375L92.586 73.375L92.586 73.375L92.586 73.375L92.586 73.375L92.586 73.375L92.586 73.375L92.586 73.375L92.586 73.375L92.586 73.375L92.586 73.375L92.586 73.375L92.586 73.375L92.586 73.375L92.5861 73.375L92.5861 73.375L92.5861 73.375L92.5861 73.375L92.5861 73.375L92.5861 73.375L92.5861 73.375L92.5861 73.375L92.5861 73.375L92.5861 73.375L92.5861 73.375L92.5861 73.375L92.5861 73.375L92.5861 73.375L92.5861 73.375L92.5861 73.375L92.5861 73.375L92.5861 73.375L92.5861 73.375L92.5861 73.375L92.5861 73.375L92.5861 73.375L92.5861 73.375L92.5861 73.375L92.5861 73.375L92.5861 73.375L92.5861 73.375L92.5861 73.375L92.5861 73.375L92.5861 73.375L92.5861 73.375L92.5861 73.375L92.5861 73.375L92.5861 73.375L92.5861 73.375L92.5861 73.375L92.5861 73.375L92.5862 73.375L92.5862 73.375L92.5862 73.375L92.5862 73.375L92.5862 73.375L92.5862 73.375L92.5862 73.3749L92.5862 73.3749L92.5862 73.3749L92.5862 73.3749L92.5862 73.3749L92.5862 73.3749L92.5862 73.3749L92.5862 73.3749L92.5862 73.3749M92.3482 72.9684L92.5864 73.3748C92.5863 73.3749 92.5862 73.3749 92.5862 73.3749M92.3482 72.9684L92.3494 72.9676M92.5862 73.3749C92.133 73.6627 92.0716 74.1208 92.2051 74.3491L92.6977 75.1914C92.8309 75.4193 93.25 75.5728 93.7033 75.2857C94.1565 74.9986 94.2181 74.5407 94.0848 74.3128L93.5922 73.4705L93.5919 73.4698C93.4591 73.242 93.0406 73.0879 92.587 73.3744M92.5862 73.3749L92.5862 73.3749L92.5862 73.3749L92.5862 73.3749L92.5862 73.3749L92.5862 73.3749L92.5862 73.3749L92.5862 73.3749L92.5862 73.3749L92.5862 73.3749L92.5862 73.3749L92.5862 73.3749L92.5862 73.3749L92.5862 73.3749L92.5862 73.3749L92.5862 73.3749L92.5862 73.3749L92.5862 73.3749L92.5862 73.3749L92.5862 73.3749L92.5862 73.3749L92.5862 73.3749L92.5862 73.3749L92.5862 73.3749L92.5862 73.3749L92.5863 73.3749L92.5863 73.3749L92.5863 73.3749L92.5863 73.3749L92.5863 73.3749L92.5863 73.3749L92.5863 73.3749L92.5863 73.3749L92.5863 73.3749L92.5863 73.3749L92.5863 73.3749L92.5863 73.3749L92.5863 73.3749L92.5863 73.3749L92.5863 73.3749L92.5863 73.3749L92.5863 73.3749L92.5863 73.3749L92.5863 73.3749L92.5863 73.3749L92.5863 73.3749L92.5863 73.3749L92.5863 73.3749L92.5863 73.3749L92.5863 73.3749L92.5863 73.3749L92.5863 73.3749L92.5863 73.3749L92.5863 73.3749L92.5863 73.3749L92.5863 73.3748L92.5863 73.3748L92.5863 73.3748L92.5863 73.3748L92.5863 73.3748L92.5863 73.3748L92.5863 73.3748L92.5863 73.3748L92.5863 73.3748L92.5863 73.3748L92.5863 73.3748L92.5864 73.3748L92.5864 73.3748L92.5864 73.3748L92.5864 73.3748L92.5864 73.3748L92.5864 73.3748L92.5864 73.3748L92.5864 73.3748L92.5864 73.3748L92.5864 73.3748L92.5864 73.3748L92.5864 73.3748L92.5864 73.3748L92.5864 73.3748L92.5864 73.3748L92.5864 73.3748L92.5864 73.3748L92.5864 73.3748L92.5864 73.3748L92.5864 73.3748L92.5864 73.3748L92.5864 73.3748L92.5864 73.3748L92.5864 73.3748L92.5864 73.3748L92.5864 73.3748L92.5864 73.3748L92.5864 73.3748L92.5864 73.3748L92.5864 73.3748L92.5864 73.3748L92.5864 73.3748L92.5864 73.3748L92.5864 73.3748L92.5864 73.3748L92.5864 73.3748L92.5864 73.3748L92.5864 73.3748L92.5864 73.3748L92.5864 73.3748L92.5864 73.3748L92.5864 73.3748L92.5864 73.3748L92.5864 73.3748L92.5865 73.3748L92.5865 73.3748L92.5865 73.3748L92.5865 73.3748L92.5865 73.3748L92.5865 73.3748L92.5865 73.3748L92.5865 73.3748L92.5865 73.3748L92.5865 73.3748L92.5865 73.3748L92.5865 73.3748L92.5865 73.3748L92.5865 73.3747L92.5865 73.3747L92.5865 73.3747L92.5865 73.3747L92.5865 73.3747L92.5865 73.3747L92.5865 73.3747L92.5865 73.3747L92.5865 73.3747L92.5865 73.3747L92.5865 73.3747L92.5865 73.3747L92.5865 73.3747L92.5865 73.3747L92.5865 73.3747L92.5865 73.3747L92.5865 73.3747L92.5865 73.3747L92.5865 73.3747L92.5865 73.3747L92.5865 73.3747L92.5865 73.3747L92.5865 73.3747L92.5865 73.3747L92.5865 73.3747L92.5865 73.3747L92.5865 73.3747L92.5865 73.3747L92.5865 73.3747L92.5865 73.3747L92.5865 73.3747L92.5866 73.3747L92.5866 73.3747L92.5866 73.3747L92.5866 73.3747L92.5866 73.3747L92.5866 73.3747L92.5866 73.3747L92.5866 73.3747L92.5866 73.3747L92.5866 73.3747L92.5866 73.3747L92.5866 73.3747L92.5866 73.3747L92.5866 73.3747L92.5866 73.3747L92.5866 73.3747L92.5866 73.3747L92.5866 73.3747L92.5866 73.3747L92.5866 73.3747L92.5866 73.3747L92.5866 73.3747L92.5866 73.3747L92.5866 73.3747L92.5866 73.3747L92.5866 73.3747L92.5866 73.3747L92.5866 73.3747L92.5866 73.3747L92.5866 73.3747L92.5866 73.3747L92.5866 73.3747L92.5866 73.3747L92.5866 73.3747L92.5866 73.3747L92.5866 73.3747L92.5866 73.3747L92.5866 73.3747L92.5866 73.3747L92.5866 73.3747L92.5866 73.3746L92.5866 73.3746L92.5866 73.3746L92.5866 73.3746L92.5866 73.3746L92.5867 73.3746L92.5867 73.3746L92.5867 73.3746L92.5867 73.3746L92.5867 73.3746L92.5867 73.3746L92.5867 73.3746L92.5867 73.3746L92.5867 73.3746L92.5867 73.3746L92.5867 73.3746L92.5867 73.3746L92.5867 73.3746L92.5867 73.3746L92.5867 73.3746L92.5867 73.3746L92.5867 73.3746L92.5867 73.3746L92.5867 73.3746L92.5867 73.3746L92.5867 73.3746L92.5867 73.3746L92.5867 73.3746L92.5867 73.3746L92.5867 73.3746L92.5867 73.3746L92.5867 73.3746L92.5867 73.3746L92.5867 73.3746L92.5867 73.3746L92.5867 73.3746L92.5867 73.3746L92.5867 73.3746L92.5867 73.3746L92.5867 73.3746L92.5867 73.3746L92.5867 73.3746L92.5867 73.3746L92.5867 73.3746L92.5867 73.3746L92.5867 73.3746L92.5867 73.3746L92.5867 73.3746L92.5867 73.3746L92.5868 73.3746L92.5868 73.3746L92.5868 73.3746L92.5868 73.3746L92.5868 73.3746L92.5868 73.3746L92.5868 73.3746L92.5868 73.3746L92.5868 73.3746L92.5868 73.3746L92.5868 73.3746L92.5868 73.3746L92.5868 73.3746L92.5868 73.3746L92.5868 73.3746L92.5868 73.3746L92.5868 73.3746L92.5868 73.3746L92.5868 73.3746L92.5868 73.3746L92.5868 73.3746L92.5868 73.3745L92.5868 73.3745L92.5868 73.3745L92.5868 73.3745L92.5868 73.3745L92.5868 73.3745L92.5868 73.3745L92.5868 73.3745L92.5868 73.3745L92.5868 73.3745L92.5868 73.3745L92.5868 73.3745L92.5868 73.3745L92.5868 73.3745L92.5868 73.3745L92.5868 73.3745L92.5868 73.3745L92.5868 73.3745L92.5868 73.3745L92.5868 73.3745L92.5868 73.3745L92.5868 73.3745L92.5869 73.3745L92.5869 73.3745L92.5869 73.3745L92.5869 73.3745L92.5869 73.3745L92.5869 73.3745L92.5869 73.3745L92.5869 73.3745L92.5869 73.3745L92.5869 73.3745L92.5869 73.3745L92.5869 73.3745L92.5869 73.3745L92.5869 73.3745L92.5869 73.3745L92.5869 73.3745L92.5869 73.3745L92.5869 73.3745L92.5869 73.3745L92.5869 73.3745L92.5869 73.3745L92.5869 73.3745L92.5869 73.3745L92.5869 73.3745L92.5869 73.3745L92.5869 73.3745L92.5869 73.3745L92.5869 73.3745L92.5869 73.3745L92.5869 73.3745L92.5869 73.3745L92.5869 73.3745L92.5869 73.3745L92.5869 73.3745L92.5869 73.3745L92.5869 73.3745L92.5869 73.3745L92.5869 73.3745L92.5869 73.3745L92.5869 73.3745L92.5869 73.3745L92.5869 73.3745L92.587 73.3745L92.587 73.3745L92.587 73.3744L92.587 73.3744L92.587 73.3744L92.587 73.3744L92.587 73.3744L92.587 73.3744L92.587 73.3744L92.587 73.3744L92.587 73.3744L92.587 73.3744L92.587 73.3744L92.587 73.3744L92.587 73.3744L92.587 73.3744L92.587 73.3744L92.587 73.3744L92.587 73.3744M92.587 73.3744L92.587 73.3744L92.587 73.3744L92.587 73.3744L92.587 73.3744L92.587 73.3744L92.587 73.3744L92.587 73.3744L92.587 73.3744L92.587 73.3744L92.587 73.3744L92.587 73.3744L92.587 73.3744L92.587 73.3744L92.587 73.3744L92.587 73.3744L92.587 73.3744L92.587 73.3744L92.587 73.3744L92.587 73.3744L92.587 73.3744L92.5871 73.3744L92.5871 73.3744L92.5871 73.3744L92.5871 73.3744L92.5871 73.3744L92.5871 73.3744L92.5871 73.3744L92.5871 73.3744L92.5871 73.3744L92.5871 73.3744L92.5871 73.3744L92.5871 73.3744L92.5871 73.3744L92.5871 73.3744L92.5871 73.3744L92.5871 73.3744L92.5871 73.3744L92.5871 73.3744L92.5871 73.3744L92.5871 73.3744L92.5871 73.3744L92.5871 73.3744L92.5871 73.3744L92.5871 73.3743L92.5871 73.3743L92.5871 73.3743L92.5871 73.3743L92.5871 73.3743L92.5871 73.3743L92.5871 73.3743L92.5871 73.3743L92.5871 73.3743L92.5871 73.3743L92.5871 73.3743L92.5871 73.3743L92.5871 73.3743L92.5872 73.3743L92.5872 73.3743L92.5872 73.3743L92.5872 73.3743L92.5872 73.3743L92.5872 73.3743L92.5872 73.3743L92.5872 73.3743L92.5872 73.3743L92.5872 73.3743L92.5872 73.3743L92.5872 73.3743L92.5872 73.3743L92.5872 73.3743L92.5872 73.3743L92.5872 73.3743L92.5872 73.3743L92.5872 73.3743L92.5872 73.3743L92.5872 73.3743L92.5872 73.3743L92.5872 73.3743L92.5872 73.3743L92.5872 73.3743L92.5872 73.3743L92.5872 73.3743L92.5872 73.3743L92.3494 72.9676M92.587 73.3744C92.5869 73.3745 92.5869 73.3745 92.5868 73.3745L92.3494 72.9676" fill="#3A556A" stroke="black"/>
<path d="M87.8837 75.7409C87.2855 76.1207 87.047 76.8489 87.3508 77.3684L87.8434 78.2108C88.147 78.73 88.8783 78.8438 89.4767 78.4648C90.075 78.0858 90.3139 77.3576 90.0103 76.8383L89.5177 75.996C89.2148 75.4762 88.4838 75.3618 87.885 75.7401L87.8837 75.7409ZM87.8837 75.7409L88.1215 76.1475L88.1215 76.1475L88.1215 76.1475L88.1215 76.1475L88.1215 76.1475L88.1216 76.1475L88.1216 76.1475L88.1216 76.1475L88.1216 76.1475L88.1216 76.1475L88.1216 76.1475L88.1216 76.1475L88.1216 76.1475L88.1216 76.1475L88.1216 76.1475L88.1216 76.1475L88.1216 76.1475L88.1216 76.1475L88.1216 76.1475L88.1216 76.1475L88.1216 76.1475L88.1216 76.1475L88.1216 76.1475L88.1216 76.1475L88.1216 76.1475L88.1216 76.1475L88.1216 76.1475L88.1216 76.1475L88.1216 76.1475L88.1216 76.1475L88.1216 76.1475L88.1216 76.1475L88.1216 76.1475L88.1216 76.1475L88.1216 76.1475L88.1216 76.1475L88.1216 76.1475L88.1216 76.1475L88.1216 76.1475L88.1216 76.1475L88.1216 76.1475L88.1216 76.1475L88.1216 76.1475L88.1216 76.1475L88.1216 76.1475L88.1216 76.1475L88.1216 76.1475L88.1216 76.1475L88.1216 76.1475L88.1216 76.1475L88.1216 76.1475L88.1216 76.1475L88.1216 76.1475L88.1216 76.1475L88.1216 76.1475L88.1216 76.1475L88.1216 76.1475L88.1216 76.1475L88.1216 76.1475L88.1216 76.1475L88.1216 76.1475L88.1216 76.1475L88.1216 76.1475L88.1216 76.1475L88.1216 76.1475L88.1217 76.1475L88.1217 76.1475L88.1217 76.1475L88.1217 76.1475L88.1217 76.1475L88.1217 76.1475L88.1217 76.1475L88.1217 76.1475L88.1217 76.1475L88.1217 76.1475L88.1217 76.1475L88.1217 76.1475L88.1217 76.1475L88.1217 76.1475L88.1217 76.1475L88.1217 76.1475L88.1217 76.1475L88.1217 76.1475L88.1217 76.1475L88.1217 76.1475L88.1217 76.1474L88.1217 76.1474L88.1217 76.1474L88.1217 76.1474L88.1217 76.1474L88.1217 76.1474L88.1217 76.1474L88.1217 76.1474L88.1217 76.1474L88.1217 76.1474L88.1217 76.1474L88.1217 76.1474L88.1217 76.1474L88.1217 76.1474L88.1217 76.1474L88.1217 76.1474L88.1217 76.1474L88.1217 76.1474L88.1217 76.1474L88.1217 76.1474L88.1217 76.1474L88.1217 76.1474L88.1217 76.1474L88.1217 76.1474L88.1217 76.1474L88.1217 76.1474L88.1217 76.1474L88.1217 76.1474L88.1217 76.1474L88.1217 76.1474L88.1217 76.1474L88.1218 76.1474L88.1218 76.1474L88.1218 76.1474L88.1218 76.1474L88.1218 76.1474L88.1218 76.1474L88.1218 76.1474L88.1218 76.1474L88.1218 76.1474L88.1218 76.1474L88.1218 76.1474M87.8837 75.7409L88.122 76.1473C88.1219 76.1473 88.1218 76.1474 88.1218 76.1474M88.1218 76.1474C87.6686 76.4352 87.6071 76.8932 87.7406 77.1215L88.2332 77.9638C88.3665 78.1917 88.7856 78.3452 89.2389 78.0581C89.6921 77.7711 89.7537 77.3131 89.6204 77.0853L89.1278 76.2429L89.1274 76.2423C88.9947 76.0145 88.5761 75.8604 88.1226 76.1469M88.1218 76.1474L88.1218 76.1474L88.1218 76.1474L88.1218 76.1474L88.1218 76.1474L88.1218 76.1474L88.1218 76.1474L88.1218 76.1474L88.1218 76.1474L88.1218 76.1474L88.1218 76.1474L88.1218 76.1474L88.1218 76.1474L88.1218 76.1474L88.1218 76.1474L88.1218 76.1474L88.1218 76.1474L88.1218 76.1474L88.1218 76.1474L88.1218 76.1474L88.1218 76.1474L88.1218 76.1474L88.1218 76.1474L88.1218 76.1474L88.1218 76.1474L88.1218 76.1474L88.1218 76.1474L88.1218 76.1474L88.1218 76.1474L88.1218 76.1474L88.1218 76.1474L88.1218 76.1474L88.1218 76.1474L88.1218 76.1474L88.1218 76.1473L88.1218 76.1473L88.1219 76.1473L88.1219 76.1473L88.1219 76.1473L88.1219 76.1473L88.1219 76.1473L88.1219 76.1473L88.1219 76.1473L88.1219 76.1473L88.1219 76.1473L88.1219 76.1473L88.1219 76.1473L88.1219 76.1473L88.1219 76.1473L88.1219 76.1473L88.1219 76.1473L88.1219 76.1473L88.1219 76.1473L88.1219 76.1473L88.1219 76.1473L88.1219 76.1473L88.1219 76.1473L88.1219 76.1473L88.1219 76.1473L88.1219 76.1473L88.1219 76.1473L88.1219 76.1473L88.1219 76.1473L88.1219 76.1473L88.1219 76.1473L88.1219 76.1473L88.1219 76.1473L88.1219 76.1473L88.1219 76.1473L88.1219 76.1473L88.1219 76.1473L88.1219 76.1473L88.1219 76.1473L88.1219 76.1473L88.1219 76.1473L88.1219 76.1473L88.1219 76.1473L88.1219 76.1473L88.1219 76.1473L88.122 76.1473L88.122 76.1473L88.122 76.1473L88.122 76.1473L88.122 76.1473L88.122 76.1473L88.122 76.1473L88.122 76.1473L88.122 76.1473L88.122 76.1473L88.122 76.1473L88.122 76.1473L88.122 76.1473L88.122 76.1473L88.122 76.1473L88.122 76.1473L88.122 76.1473L88.122 76.1473L88.122 76.1473L88.122 76.1473L88.122 76.1473L88.122 76.1472L88.122 76.1472L88.122 76.1472L88.122 76.1472L88.122 76.1472L88.122 76.1472L88.122 76.1472L88.122 76.1472L88.122 76.1472L88.122 76.1472L88.122 76.1472L88.122 76.1472L88.122 76.1472L88.122 76.1472L88.122 76.1472L88.122 76.1472L88.122 76.1472L88.122 76.1472L88.122 76.1472L88.1221 76.1472L88.1221 76.1472L88.1221 76.1472L88.1221 76.1472L88.1221 76.1472L88.1221 76.1472L88.1221 76.1472L88.1221 76.1472L88.1221 76.1472L88.1221 76.1472L88.1221 76.1472L88.1221 76.1472L88.1221 76.1472L88.1221 76.1472L88.1221 76.1472L88.1221 76.1472L88.1221 76.1472L88.1221 76.1472L88.1221 76.1472L88.1221 76.1472L88.1221 76.1472L88.1221 76.1472L88.1221 76.1472L88.1221 76.1472L88.1221 76.1472L88.1221 76.1472L88.1221 76.1472L88.1221 76.1472L88.1221 76.1472L88.1221 76.1472L88.1221 76.1472L88.1221 76.1472L88.1221 76.1472L88.1221 76.1472L88.1221 76.1472L88.1221 76.1472L88.1221 76.1472L88.1221 76.1472L88.1222 76.1472L88.1222 76.1472L88.1222 76.1472L88.1222 76.1472L88.1222 76.1471L88.1222 76.1471L88.1222 76.1471L88.1222 76.1471L88.1222 76.1471L88.1222 76.1471L88.1222 76.1471L88.1222 76.1471L88.1222 76.1471L88.1222 76.1471L88.1222 76.1471L88.1222 76.1471L88.1222 76.1471L88.1222 76.1471L88.1222 76.1471L88.1222 76.1471L88.1222 76.1471L88.1222 76.1471L88.1222 76.1471L88.1222 76.1471L88.1222 76.1471L88.1222 76.1471L88.1222 76.1471L88.1222 76.1471L88.1222 76.1471L88.1222 76.1471L88.1222 76.1471L88.1222 76.1471L88.1222 76.1471L88.1222 76.1471L88.1222 76.1471L88.1222 76.1471L88.1222 76.1471L88.1223 76.1471L88.1223 76.1471L88.1223 76.1471L88.1223 76.1471L88.1223 76.1471L88.1223 76.1471L88.1223 76.1471L88.1223 76.1471L88.1223 76.1471L88.1223 76.1471L88.1223 76.1471L88.1223 76.1471L88.1223 76.1471L88.1223 76.1471L88.1223 76.1471L88.1223 76.1471L88.1223 76.1471L88.1223 76.1471L88.1223 76.1471L88.1223 76.1471L88.1223 76.1471L88.1223 76.1471L88.1223 76.1471L88.1223 76.1471L88.1223 76.1471L88.1223 76.147L88.1223 76.147L88.1223 76.147L88.1223 76.147L88.1223 76.147L88.1223 76.147L88.1223 76.147L88.1223 76.147L88.1223 76.147L88.1223 76.147L88.1223 76.147L88.1224 76.147L88.1224 76.147L88.1224 76.147L88.1224 76.147L88.1224 76.147L88.1224 76.147L88.1224 76.147L88.1224 76.147L88.1224 76.147L88.1224 76.147L88.1224 76.147L88.1224 76.147L88.1224 76.147L88.1224 76.147L88.1224 76.147L88.1224 76.147L88.1224 76.147L88.1224 76.147L88.1224 76.147L88.1224 76.147L88.1224 76.147L88.1224 76.147L88.1224 76.147L88.1224 76.147L88.1224 76.147L88.1224 76.147L88.1224 76.147L88.1224 76.147L88.1224 76.147L88.1224 76.147L88.1224 76.147L88.1224 76.147L88.1224 76.147L88.1224 76.147L88.1224 76.147L88.1225 76.147L88.1225 76.147L88.1225 76.147L88.1225 76.147L88.1225 76.147L88.1225 76.147L88.1225 76.147L88.1225 76.147L88.1225 76.147L88.1225 76.147L88.1225 76.1469L88.1225 76.1469L88.1225 76.1469L88.1225 76.1469L88.1225 76.1469L88.1225 76.1469L88.1225 76.1469L88.1225 76.1469L88.1225 76.1469L88.1225 76.1469L88.1225 76.1469L88.1225 76.1469L88.1225 76.1469L88.1225 76.1469L88.1225 76.1469L88.1225 76.1469L88.1225 76.1469L88.1225 76.1469L88.1225 76.1469L88.1225 76.1469L88.1225 76.1469L88.1225 76.1469L88.1225 76.1469L88.1225 76.1469L88.1225 76.1469L88.1226 76.1469L88.1226 76.1469L88.1226 76.1469L88.1226 76.1469L88.1226 76.1469L88.1226 76.1469L88.1226 76.1469L88.1226 76.1469L88.1226 76.1469L88.1226 76.1469M88.1226 76.1469L88.1226 76.1469L88.1226 76.1469L88.1226 76.1469L88.1226 76.1469L88.1226 76.1469L88.1226 76.1469L88.1226 76.1469L88.1226 76.1469L88.1226 76.1469L88.1226 76.1469L88.1226 76.1469L88.1226 76.1469L88.1226 76.1469L88.1226 76.1469L88.1226 76.1469L88.1226 76.1469L88.1226 76.1469L88.1226 76.1469L88.1226 76.1469L88.1226 76.1469L88.1226 76.1468L88.1226 76.1468L88.1226 76.1468L88.1226 76.1468L88.1226 76.1468L88.1227 76.1468L88.1227 76.1468L88.1227 76.1468L88.1227 76.1468L88.1227 76.1468L88.1227 76.1468L88.1227 76.1468L88.1227 76.1468L88.1227 76.1468L88.1227 76.1468L88.1227 76.1468L88.1227 76.1468L88.1227 76.1468L88.1227 76.1468L88.1227 76.1468L88.1227 76.1468L88.1227 76.1468L88.1227 76.1468L88.1227 76.1468L88.1227 76.1468L88.1227 76.1468L88.1227 76.1468L88.1227 76.1468L88.1227 76.1468L88.1227 76.1468L88.1227 76.1468L88.1227 76.1468L88.1227 76.1468L88.1227 76.1468L88.1227 76.1468L88.1227 76.1468L88.1227 76.1468L88.1227 76.1468L88.1227 76.1468L88.1228 76.1468L88.1228 76.1468L88.1228 76.1468L88.1228 76.1468L88.1228 76.1468L88.1228 76.1468L88.1228 76.1468L88.1228 76.1468L88.1228 76.1468L88.1228 76.1468L88.1228 76.1468L88.1228 76.1468L88.1228 76.1468L88.1228 76.1468L88.1228 76.1467L88.1228 76.1467L88.1228 76.1467L88.1228 76.1467L88.1228 76.1467L87.885 75.7402L88.1224 76.147C88.1225 76.147 88.1225 76.1469 88.1226 76.1469Z" fill="#3A556A" stroke="black"/>
<path d="M84.6628 79.0154L84.6629 79.0156L85.1553 79.8575C85.2878 80.0853 85.2259 80.542 84.7743 80.8287C84.3217 81.1161 83.9022 80.9635 83.7684 80.7359L83.276 79.894C83.1425 79.6657 83.204 79.2078 83.657 78.92C84.1105 78.6334 84.5295 78.7871 84.6628 79.0154Z" fill="#3A556A" stroke="black"/>
<path d="M80.1982 81.7878L80.1983 81.788L80.6907 82.6299C80.8232 82.8577 80.7614 83.3144 80.3097 83.6012C79.8571 83.8886 79.4376 83.736 79.3038 83.5084L78.8114 82.6664C78.6779 82.4382 78.7394 81.9802 79.1924 81.6924C79.6459 81.4059 80.0649 81.5596 80.1982 81.7878Z" fill="#3A556A" stroke="black"/>
<path d="M74.3471 85.4389C74.2137 85.2106 74.2751 84.7527 74.7281 84.4649C75.1812 84.1786 75.6004 84.3321 75.734 84.5605L76.2264 85.4025C76.3589 85.6302 76.297 86.0869 75.8454 86.3736C75.3928 86.661 74.9733 86.5084 74.8395 86.2808L74.3471 85.4389Z" fill="#3A556A" stroke="black"/>
<path d="M71.2681 87.3335L71.2682 87.3337L71.7605 88.1756C71.8931 88.4033 71.8313 88.8601 71.3796 89.1469C70.9269 89.4342 70.5075 89.2816 70.3737 89.054L69.8813 88.2121L69.8807 88.211C69.7474 87.9831 69.809 87.5253 70.2621 87.2382C70.7156 86.9515 71.1347 87.1052 71.2681 87.3335Z" fill="#3A556A" stroke="black"/>
<path d="M65.4175 90.9827C65.2842 90.7549 65.3458 90.297 65.7989 90.0099C66.2521 89.7235 66.6714 89.877 66.805 90.1054L67.2974 90.9474C67.4299 91.1751 67.3681 91.6318 66.9164 91.9185C66.4638 92.2059 66.0443 92.0533 65.9105 91.8257L65.4181 90.9838L65.4175 90.9827Z" fill="#3A556A" stroke="black"/>
</g>
<defs>
<filter id="filter0_d_1_353" x="20.9914" y="41.9999" width="120.046" height="87.0094" filterUnits="userSpaceOnUse" color-interpolation-filters="sRGB">
<feFlood flood-opacity="0" result="BackgroundImageFix"/>
<feColorMatrix in="SourceAlpha" type="matrix" values="0 0 0 0 0 0 0 0 0 0 0 0 0 0 0 0 0 0 127 0" result="hardAlpha"/>
<feOffset dy="4"/>
<feGaussianBlur stdDeviation="2"/>
<feComposite in2="hardAlpha" operator="out"/>
<feColorMatrix type="matrix" values="0 0 0 0 0 0 0 0 0 0 0 0 0 0 0 0 0 0 0.25 0"/>
<feBlend mode="normal" in2="BackgroundImageFix" result="effect1_dropShadow_1_353"/>
<feBlend mode="normal" in="SourceGraphic" in2="effect1_dropShadow_1_353" result="shape"/>
</filter>
</defs>
</svg>
